<?xml version="1.0" encoding="UTF-8" standalone="no"?>
<svg
   viewBox="0 0 273.97 35"
   version="1.1"
   id="svg4201"
   xmlns="http://www.w3.org/2000/svg"
   xmlns:svg="http://www.w3.org/2000/svg"
   xmlns:rdf="http://www.w3.org/1999/02/22-rdf-syntax-ns#"
   xmlns:cc="http://creativecommons.org/ns#"
   xmlns:dc="http://purl.org/dc/elements/1.1/">
  <defs
     id="defs3827">
    <link xmlns="http://www.w3.org/1999/xhtml" rel="stylesheet" href="../css/svg.css"/>
    <style>
        #pp_hover:hover,
        #bp_hover:hover,
        #tie_hover:hover,
        #banker_hover:hover,
        #player_hover:hover,
        #clear_last_bet_hover:hover,
        #rebet_hover:hover,
        #clear_all_bet_hover:hover,
        #super_six_hover:hover {
            opacity: 0.5;
            cursor: pointer;
            transition: all .5s ease;
            fill: #fff;
        }

        

        #p_pair_coin,
        #b_pair_coin,
        #tie_coin,
        #banker_coin,
        #player_coin,
        #super_six_coin {
            display: none;

        }

        #p_pair_coin>text,
        #b_pair_coin>text,
        #tie_coin>text,
        #banker_coin>text,
        #super_six_coin>text,
        #player_coin>text {
            font-family: Arial, Helvetica, sans-serif;
            font-size: 2.5vw !important;
            font-weight: 600;
        }
            .cls-1 {
                fill: #0b6fbd;
            }

            .cls-2,
            .cls-3 {
                stroke: #fff;
                stroke-miterlimit: 10;
                stroke-width: 0.5px;
            }

            .cls-3 {
                fill: #00685e;
            }

            .cls-4 {
                fill: #ad2533;
            }

            .cls-5 {
                fill: #2b9938;
            }

            .cls-6 {
                fill: #ffb400;
            }

            .cls-7 {
                fill: #fff;
            }

            .cls-8 {
                fill: #ff0;
            }

            .cls-16,
            .cls-8 {
                opacity: 0;
            }

            .cls-9 {
                fill: none;
            }

            .cls-10 {
                fill: url(#linear-gradient);
            }

            .cls-11 {
                fill: url(#linear-gradient-2);
            }

            .cls-12 {
                fill: url(#linear-gradient-3);
            }

            .cls-13 {
                fill: #441000;
            }

            .cls-14 {
                fill: url(#linear-gradient-4);
            }

            .cls-15 {
                isolation: isolate;
                font-size: 8.98px;
                font-family: ArialMT, Arial;
            }

            .cls-16 {
                fill: #fff200;
            }

            .cls-17 {
                fill: url(#linear-gradient-5);
            }

            .cls-18 {
                fill: url(#linear-gradient-6);
            }

            .cls-19 {
                fill: url(#linear-gradient-7);
            }

            .cls-20 {
                fill: url(#linear-gradient-8);
            }

            .cls-21 {
                fill: url(#linear-gradient-9);
            }

            .cls-22 {
                fill: url(#linear-gradient-10);
            }

            .cls-23 {
                fill: url(#linear-gradient-11);
            }

            .cls-24 {
                fill: url(#linear-gradient-12);
            }

            .cls-25 {
                fill: url(#linear-gradient-13);
            }

            .cls-26 {
                fill: url(#linear-gradient-14);
            }

            .cls-27 {
                fill: url(#linear-gradient-15);
            }

            .cls-28 {
                fill: url(#linear-gradient-16);
            }

            .cls-29 {
                fill: url(#linear-gradient-17);
            }

            .cls-30 {
                fill: url(#linear-gradient-18);
            }

            .cls-31 {
                fill: url(#linear-gradient-19);
            }

            .cls-32 {
                fill: url(#linear-gradient-20);
            }

            .cls-33 {
                fill: url(#linear-gradient-21);
            }

            .cls-34 {
                fill: url(#linear-gradient-22);
            }

            .cls-35 {
                fill: url(#linear-gradient-23);
            }

            .cls-36 {
                fill: url(#linear-gradient-24);
            }
        </style>
        </defs>
  <title
     id="title3829">Baccarat_svg_TEXTOUTLINE_NEW_1 - SUPER 6_2023_1</title>
  <g
     id="background">
    <rect
       width="273.97"
       height="34.997433"
       id="rect3831"
       x="0"
       y="0.0075276545"
       style="stroke-width:0.472468" />
    <g
       id="super_six">
      <rect
         class="cls-2"
         x="4.1100001"
         y="3.5738955"
         width="64.230003"
         height="23.41"
         rx="3"
         id="rect3835"
         ry="3" />
      <rect
         class="cls-2"
         x="70.989998"
         y="3.5738955"
         width="64.230003"
         height="23.41"
         rx="3"
         id="rect3837"
         ry="3" />
      <rect
         class="cls-2"
         x="137.87"
         y="3.5738955"
         width="64.230003"
         height="23.41"
         rx="3"
         id="rect3839"
         ry="3" />
      <rect
         class="cls-3"
         x="204.75"
         y="3.5738955"
         width="64.230003"
         height="23.41"
         rx="3"
         id="rect3841"
         ry="3" />
    </g>
    <path
       class="cls-7"
       d="m 26.4,13.763894 a 2.44,2.44 0 0 1 -1.67,-0.55 1.9,1.9 0 0 1 -0.63,-1.52 V 7.9838943 a 2.64,2.64 0 0 1 0.55,-1.7900003 2.28,2.28 0 0 1 1.79,-0.63 3.27,3.27 0 0 1 1.21,0.21 1.9,1.9 0 0 1 0.83,0.63 1.77,1.77 0 0 1 0.3,1.0600003 v 1.39 h -1.89 v -1.19 a 0.82,0.82 0 0 0 -0.11,-0.4900003 0.44,0.44 0 0 0 -0.34,-0.12 0.36,0.36 0 0 0 -0.35,0.16 0.78,0.78 0 0 0 -0.1,0.4300003 v 3.9999997 a 0.72,0.72 0 0 0 0.12,0.47 0.42,0.42 0 0 0 0.33,0.14 0.38,0.38 0 0 0 0.35,-0.17 0.92,0.92 0 0 0 0.1,-0.44 v -1.45 h 1.92 v 1.57 a 1.81,1.81 0 0 1 -0.64,1.54 2.87,2.87 0 0 1 -1.77,0.46 z"
       id="path3961" />
    <path
       class="cls-7"
       d="m 29.44,13.683894 v -8 h 1.91 v 6.67 h 2 v 1.38 z"
       id="path3963" />
    <path
       class="cls-7"
       d="m 33.85,13.683894 v -8 h 3.81 v 1.55 h -1.87 v 1.5300003 h 1.8 v 1.5099997 h -1.8 v 1.85 h 2 v 1.57 z"
       id="path3965" />
    <path
       class="cls-7"
       d="m 38.16,13.683894 0.92,-8 h 3.23 l 0.91,8 h -1.81 l -0.13,-1.3 h -1.15 l -0.12,1.3 z m 2.1,-2.59 h 0.87 l -0.42,-4.09 h -0.08 z"
       id="path3967" />
    <path
       class="cls-7"
       d="m 43.8,13.683894 v -8 h 2.93 a 1.79,1.79 0 0 1 1.1,0.28 1.34,1.34 0 0 1 0.5,0.79 4.58,4.58 0 0 1 0.13,1.1800003 2.23,2.23 0 0 1 -0.2,1 1.08,1.08 0 0 1 -0.74,0.55 0.85,0.85 0 0 1 0.63,0.38 1.44,1.44 0 0 1 0.18,0.7699997 v 3 h -1.88 v -3.16 c 0,-0.23 -0.06,-0.38 -0.17,-0.43 A 1.24,1.24 0 0 0 45.73,9.953895 v 3.68 z m 1.94,-5.0699997 h 0.46 c 0.27,0 0.4,-0.24 0.4,-0.73 a 1.4,1.4 0 0 0 -0.09,-0.6200003 0.36,0.36 0 0 0 -0.32,-0.14 h -0.45 z"
       id="path3969" />
    <path
       class="cls-7"
       d="m 18.55,24.913894 v -8 h 1.91 v 6.67 h 2 v 1.37 z"
       id="path3971" />
    <path
       class="cls-7"
       d="m 22.7,24.913894 0.92,-8 h 3.24 l 0.9,8 h -1.79 l -0.14,-1.29 h -1.16 l -0.12,1.29 z m 2.11,-2.58 h 0.86 l -0.41,-4.09 h -0.09 z"
       id="path3973" />
    <path
       class="cls-7"
       d="m 30.61,24.993894 a 2.69,2.69 0 0 1 -1.88,-0.55 2.31,2.31 0 0 1 -0.58,-1.75 v -0.79 h 1.89 v 1 a 0.8,0.8 0 0 0 0.1,0.44 0.38,0.38 0 0 0 0.35,0.16 0.46,0.46 0 0 0 0.36,-0.13 0.76,0.76 0 0 0 0.1,-0.42 1.81,1.81 0 0 0 -0.09,-0.62 1.37,1.37 0 0 0 -0.3,-0.48 5.71,5.71 0 0 0 -0.59,-0.53 l -0.86,-0.68 a 2.21,2.21 0 0 1 -1,-1.75 2.06,2.06 0 0 1 0.57,-1.57 2.27,2.27 0 0 1 1.64,-0.54 2.48,2.48 0 0 1 1.86,0.59 2.59,2.59 0 0 1 0.55,1.79 h -1.9 v -0.55 a 0.31,0.31 0 0 0 -0.11,-0.25 0.45,0.45 0 0 0 -0.31,-0.1 0.45,0.45 0 0 0 -0.33,0.11 0.39,0.39 0 0 0 -0.1,0.28 0.76,0.76 0 0 0 0.1,0.36 1.76,1.76 0 0 0 0.43,0.46 l 1.1,0.89 a 5.4,5.4 0 0 1 0.61,0.56 2.41,2.41 0 0 1 0.44,0.68 2.5,2.5 0 0 1 0.17,1 2.82,2.82 0 0 1 -0.49,1.77 2.07,2.07 0 0 1 -1.73,0.62 z"
       id="path3975" />
    <path
       class="cls-7"
       d="m 34.28,24.913894 v -6.5 h -1.13 v -1.54 h 4.17 v 1.54 h -1.13 v 6.5 z"
       id="path3977" />
    <path
       class="cls-7"
       d="m 40.45,24.913894 v -8 h 2.59 a 2.23,2.23 0 0 1 1.51,0.42 1.82,1.82 0 0 1 0.48,1.41 v 0.36 a 1.58,1.58 0 0 1 -0.24,0.91 1.2,1.2 0 0 1 -0.74,0.47 1.12,1.12 0 0 1 0.87,0.64 3.23,3.23 0 0 1 0.21,1.23 4.71,4.71 0 0 1 -0.17,1.37 1.61,1.61 0 0 1 -0.63,0.91 2.16,2.16 0 0 1 -1.29,0.32 z m 1.87,-5 h 0.39 a 0.33,0.33 0 0 0 0.34,-0.18 1,1 0 0 0 0.07,-0.41 v -0.81 a 0.35,0.35 0 0 0 -0.4,-0.39 h -0.4 z m 0.19,3.6 c 0.49,0 0.74,-0.2 0.74,-0.6 v -1 a 1.09,1.09 0 0 0 -0.12,-0.55 0.51,0.51 0 0 0 -0.46,-0.2 h -0.35 v 2.34 z"
       id="path3979" />
    <path
       class="cls-7"
       d="m 45.76,24.913894 v -8 h 3.82 v 1.55 H 47.7 v 1.57 h 1.8 v 1.51 h -1.8 v 1.85 h 2 v 1.56 z"
       id="path3981" />
    <path
       class="cls-7"
       d="m 51.15,24.913894 v -6.5 h -1.13 v -1.54 h 4.17 v 1.54 h -1.13 v 6.5 z"
       id="path3983" />
    <path
       class="cls-7"
       d="m 160.17,13.763894 a 2.46,2.46 0 0 1 -1.67,-0.55 1.9,1.9 0 0 1 -0.63,-1.52 V 7.9838943 a 2.64,2.64 0 0 1 0.55,-1.7900003 2.28,2.28 0 0 1 1.79,-0.63 3.23,3.23 0 0 1 1.21,0.21 1.9,1.9 0 0 1 0.83,0.63 1.77,1.77 0 0 1 0.3,1.0600003 v 1.39 h -1.89 v -1.19 a 0.82,0.82 0 0 0 -0.11,-0.4900003 0.43,0.43 0 0 0 -0.34,-0.12 0.36,0.36 0 0 0 -0.35,0.16 0.88,0.88 0 0 0 -0.1,0.4300003 v 3.9999997 a 0.72,0.72 0 0 0 0.12,0.47 0.42,0.42 0 0 0 0.33,0.14 0.38,0.38 0 0 0 0.35,-0.17 0.92,0.92 0 0 0 0.1,-0.44 v -1.45 h 1.92 v 1.57 a 1.81,1.81 0 0 1 -0.64,1.54 2.87,2.87 0 0 1 -1.77,0.46 z"
       id="path3985" />
    <path
       class="cls-7"
       d="m 163.21,13.683894 v -8 h 1.91 v 6.67 h 2 v 1.38 z"
       id="path3987" />
    <path
       class="cls-7"
       d="m 167.62,13.683894 v -8 h 3.81 v 1.55 h -1.87 v 1.5300003 h 1.8 v 1.5099997 h -1.8 v 1.85 h 2 v 1.57 z"
       id="path3989" />
    <path
       class="cls-7"
       d="m 171.97,13.683894 0.92,-8 h 3.23 l 0.91,8 h -1.81 l -0.13,-1.3 h -1.15 l -0.12,1.3 z m 2.1,-2.59 h 0.87 l -0.42,-4.09 h -0.08 z"
       id="path3991" />
    <path
       class="cls-7"
       d="m 177.57,13.683894 v -8 h 2.93 a 1.79,1.79 0 0 1 1.1,0.28 1.34,1.34 0 0 1 0.5,0.79 4.58,4.58 0 0 1 0.13,1.1800003 2.23,2.23 0 0 1 -0.2,1 1.08,1.08 0 0 1 -0.74,0.55 0.85,0.85 0 0 1 0.63,0.38 1.44,1.44 0 0 1 0.18,0.7699997 v 3 h -1.88 v -3.16 c 0,-0.23 -0.06,-0.38 -0.17,-0.43 A 1.24,1.24 0 0 0 179.5,9.953895 v 3.68 z m 1.94,-5.0699997 h 0.46 c 0.27,0 0.4,-0.24 0.4,-0.73 a 1.4,1.4 0 0 0 -0.09,-0.6200003 0.35,0.35 0 0 0 -0.32,-0.14 h -0.45 z"
       id="path3993" />
    <path
       class="cls-7"
       d="m 154.61,24.913894 0.92,-8 h 3.23 l 0.91,8 h -1.81 l -0.13,-1.29 h -1.15 l -0.12,1.29 z m 2.11,-2.58 h 0.86 l -0.41,-4.09 h -0.09 z"
       id="path3995" />
    <path
       class="cls-7"
       d="m 160.25,24.913894 v -8 h 1.91 v 6.67 h 2 v 1.37 z"
       id="path3997" />
    <path
       class="cls-7"
       d="m 164.67,24.913894 v -8 h 1.9 v 6.67 h 2 v 1.37 z"
       id="path3999" />
    <path
       class="cls-7"
       d="m 171.68,24.913894 v -8 h 2.58 a 2.23,2.23 0 0 1 1.51,0.42 1.82,1.82 0 0 1 0.48,1.41 v 0.36 a 1.58,1.58 0 0 1 -0.24,0.91 1.17,1.17 0 0 1 -0.74,0.47 1.12,1.12 0 0 1 0.87,0.64 3.22,3.22 0 0 1 0.22,1.23 4.69,4.69 0 0 1 -0.18,1.37 1.61,1.61 0 0 1 -0.63,0.91 2.16,2.16 0 0 1 -1.29,0.32 z m 1.86,-5 h 0.43 a 0.32,0.32 0 0 0 0.34,-0.18 1,1 0 0 0 0.08,-0.41 v -0.81 c 0,-0.26 -0.14,-0.39 -0.41,-0.39 h -0.4 z m 0.19,3.6 c 0.49,0 0.74,-0.2 0.74,-0.6 v -1 a 1.09,1.09 0 0 0 -0.12,-0.55 0.5,0.5 0 0 0 -0.46,-0.2 h -0.35 v 2.34 z"
       id="path4001" />
    <path
       class="cls-7"
       d="m 176.97,24.913894 v -8 h 3.81 v 1.55 h -1.81 v 1.57 h 1.8 v 1.51 h -1.8 v 1.85 h 2 v 1.56 z"
       id="path4003" />
    <path
       class="cls-7"
       d="m 182.37,24.913894 v -6.5 h -1.13 v -1.54 h 4.17 v 1.54 h -1.13 v 6.5 z"
       id="path4005" />
    <path
       class="cls-7"
       d="m 89.43,18.333894 v -8 h 2.93 a 1.79,1.79 0 0 1 1.1,0.28 1.32,1.32 0 0 1 0.5,0.78 4.71,4.71 0 0 1 0.13,1.19 2.23,2.23 0 0 1 -0.2,1.05 1.14,1.14 0 0 1 -0.74,0.55 0.84,0.84 0 0 1 0.63,0.37 1.5,1.5 0 0 1 0.18,0.78 v 3 h -1.88 v -3.15 c 0,-0.23 -0.06,-0.38 -0.17,-0.43 a 1.24,1.24 0 0 0 -0.55,-0.09 v 3.67 z m 1.94,-5.06 h 0.46 c 0.27,0 0.4,-0.25 0.4,-0.73 a 1.4,1.4 0 0 0 -0.09,-0.62 0.33,0.33 0 0 0 -0.32,-0.14 h -0.45 z"
       id="path4007" />
    <path
       class="cls-7"
       d="m 94.72,18.333894 v -8 h 3.81 v 1.55 h -1.87 v 1.57 h 1.8 v 1.51 h -1.8 v 1.8 h 2 v 1.56 z"
       id="path4009" />
    <path
       class="cls-7"
       d="m 99.29,18.333894 v -8 h 2.58 a 2.26,2.26 0 0 1 1.52,0.42 1.86,1.86 0 0 1 0.47,1.41 v 0.36 a 1.58,1.58 0 0 1 -0.24,0.91 1.18,1.18 0 0 1 -0.73,0.47 1.11,1.11 0 0 1 0.86,0.64 3,3 0 0 1 0.22,1.22 5.08,5.08 0 0 1 -0.17,1.37 1.71,1.71 0 0 1 -0.63,0.91 2.21,2.21 0 0 1 -1.3,0.32 z m 1.86,-5 h 0.39 a 0.32,0.32 0 0 0 0.34,-0.18 1,1 0 0 0 0.09,-0.39 v -0.81 c 0,-0.26 -0.14,-0.39 -0.41,-0.39 h -0.4 z m 0.19,3.6 c 0.5,0 0.74,-0.2 0.74,-0.6 v -1 a 1.09,1.09 0 0 0 -0.11,-0.57 0.5,0.5 0 0 0 -0.46,-0.2 h -0.35 v 2.34 z"
       id="path4011" />
    <path
       class="cls-7"
       d="m 104.6,18.333894 v -8 h 3.81 v 1.55 h -1.87 v 1.57 h 1.8 v 1.51 h -1.8 v 1.8 h 2 v 1.56 z"
       id="path4013" />
    <path
       class="cls-7"
       d="m 109.97,18.333894 v -6.5 h -1.13 v -1.54 h 4.17 v 1.54 h -1.13 v 6.5 z"
       id="path4015" />
    <g
       id="Layer_1"
       data-name="Layer 1"
       transform="translate(0,-121.25611)">
      <path
         class="cls-7"
         d="m 225,134.93 v -8 h 2.93 l 0.8,4.88 0.81,-4.88 h 3 v 8 h -1.76 v -5.77 l -1.1,5.77 h -1.78 l -1.17,-5.77 v 5.77 z"
         transform="translate(-0.03,0.02)"
         id="path4017" />
      <path
         class="cls-7"
         d="m 233.8,134.45 a 2.25,2.25 0 0 1 -0.58,-1.66 v -5.86 h 1.87 v 5.79 a 1.58,1.58 0 0 0 0.09,0.6 0.45,0.45 0 0 0 0.76,0 1.58,1.58 0 0 0 0.09,-0.6 v -5.79 h 1.86 v 5.86 a 2.24,2.24 0 0 1 -0.57,1.66 3,3 0 0 1 -3.52,0 z"
         transform="translate(-0.03,0.02)"
         id="path4019" />
      <path
         class="cls-7"
         d="m 238.63,134.93 v -8 h 1.92 v 6.64 h 2 v 1.36 z"
         transform="translate(-0.03,0.02)"
         id="path4021" />
      <path
         class="cls-7"
         d="m 243.22,134.93 v -6.46 h -1.14 v -1.54 h 4.21 v 1.54 h -1.14 v 6.46 z"
         transform="translate(-0.03,0.02)"
         id="path4023" />
      <path
         class="cls-7"
         d="m 246.73,134.93 v -8 h 1.86 v 8 z"
         transform="translate(-0.03,0.02)"
         id="path4025" />
      <path
         class="cls-7"
         d="m 225.89,146.11 v -6.46 h -1.14 v -1.54 H 229 v 1.54 h -1.14 v 6.46 z"
         transform="translate(-0.03,0.02)"
         id="path4027" />
      <path
         class="cls-7"
         d="m 229.23,146.11 0.93,-8 h 3.25 l 0.91,8 h -1.82 l -0.13,-1.29 h -1.16 l -0.12,1.29 z m 2.12,-2.57 h 0.87 l -0.42,-4.07 h -0.09 z"
         transform="translate(-0.03,0.02)"
         id="path4029" />
      <path
         class="cls-7"
         d="m 234.91,138.11 h 2.6 a 2.19,2.19 0 0 1 1.52,0.43 1.78,1.78 0 0 1 0.48,1.4 v 0.35 a 1.23,1.23 0 0 1 -1,1.37 1.21,1.21 0 0 1 0.85,0.6 2.83,2.83 0 0 1 0.24,1.26 3.37,3.37 0 0 1 -0.46,1.94 1.88,1.88 0 0 1 -1.65,0.65 h -2.6 z m 2.26,3 a 0.36,0.36 0 0 0 0.34,-0.15 0.9,0.9 0 0 0 0.09,-0.44 v -0.8 q 0,-0.39 -0.42,-0.39 h -0.4 v 1.78 z m 0.55,3 v -1 a 1,1 0 0 0 -0.13,-0.55 0.5,0.5 0 0 0 -0.45,-0.18 h -0.36 v 2.32 H 237 q 0.72,0.01 0.72,-0.59 z"
         transform="translate(-0.03,0.02)"
         id="path4031" />
      <path
         class="cls-7"
         d="m 240.26,146.11 v -8 h 1.92 v 6.64 h 2 v 1.36 z"
         transform="translate(-0.03,0.02)"
         id="path4033" />
      <path
         class="cls-7"
         d="m 244.69,146.11 v -8 h 3.85 v 1.55 h -1.89 v 1.55 h 1.81 v 1.51 h -1.81 v 1.84 h 2 v 1.55 z"
         transform="translate(-0.03,0.02)"
         id="path4035" />
    </g>
  </g>
  <g
     id="clear_last_bet"
     transform="translate(0,-121.25611)">
    <rect
       id="clear_last_bet_hover"
       class="cls-8"
       x="4.1100001"
       y="124.83"
       width="64.230003"
       height="23.41"
       rx="3"
       ry="3" />
    <rect
       id="clear_last_bet_top"
       class="cls-9"
       x="4.1100001"
       y="124.83"
       width="64.230003"
       height="23.41"
       rx="3"
       ry="3" />
  </g>
  <g
     id="rebet"
     transform="translate(0,-121.25611)">
    <rect
       id="rebet_hover"
       class="cls-8"
       x="70.989998"
       y="124.83"
       width="64.230003"
       height="23.41"
       rx="3"
       ry="3" />
    <rect
       id="rebet_top"
       class="cls-9"
       x="70.989998"
       y="124.83"
       width="64.230003"
       height="23.41"
       rx="3"
       ry="3" />
  </g>
  <g
     id="clear_all_bet"
     style="display:inline"
     transform="translate(0,-121.25611)">
    <rect
       id="clear_all_bet_hover"
       class="cls-8"
       x="137.87"
       y="124.83"
       width="64.230003"
       height="23.41"
       rx="3"
       ry="3" />
    <rect
       id="clear_all_bet_top"
       class="cls-9"
       x="137.87"
       y="124.83"
       width="64.230003"
       height="23.41"
       rx="3"
       ry="3" />
  </g>
  <g
     id="multi_table"
     style="display:inline"
     transform="translate(0,-121.25611)">
    <rect
       id="multi_table_hover"
       class="cls-8"
       x="204.75"
       y="124.83"
       width="64.230003"
       height="23.41"
       rx="3"
       ry="3" />
    <rect
       id="multi_table_top"
       class="cls-9"
       x="204.75"
       y="124.83"
       width="64.230003"
       height="23.41"
       rx="3"
       ry="3" />
  </g>
  <metadata
     id="metadata415">
    <rdf:RDF>
      <cc:Work
         rdf:about="">
        <dc:title>Baccarat_svg_TEXTOUTLINE_NEW_1 - SUPER 6_2023_1</dc:title>
      </cc:Work>
    </rdf:RDF>
  </metadata>
</svg>
